<?xml version="1.0" encoding="UTF-8" standalone="no"?>
<!DOCTYPE svg PUBLIC "-//W3C//DTD SVG 1.1//EN" "http://www.w3.org/Graphics/SVG/1.1/DTD/svg11.dtd">
<svg width="1951px" height="790px" version="1.1" xmlns="http://www.w3.org/2000/svg" xmlns:xlink="http://www.w3.org/1999/xlink" xml:space="preserve" xmlns:serif="http://www.serif.com/" style="fill-rule:evenodd;clip-rule:evenodd;stroke-linejoin:round;stroke-miterlimit:2;">
    <g transform="matrix(1,0,0,1,-25.5,-24.5811)">
        <path d="M265.1,24.9L265.1,96.8L317.7,96.8L317.7,24.9L377.8,24.9L377.8,228.3L318,228.3L318,149.9L265.2,149.9L265.2,228.4L205.1,228.4L205.1,25C224.9,24.9 244.7,24.9 265.1,24.9Z" style="fill:rgb(255,255,255);fill-rule:nonzero;"/>
    </g>
	<g transform="matrix(1,0,0,1,-25.5,-24.5811)">
        <path d="M1222.3,159.3L1222.3,228.2L1162.2,228.2L1162.2,25.3C1162.8,24.4 1163.7,24.6 1164.4,24.6C1193.1,24.7 1221.7,24.6 1250.4,24.9C1263.8,25.1 1276.9,27.3 1289.3,32.8C1310.2,42 1320.4,58.5 1322,80.8C1324,107.9 1310.9,126.1 1288.2,138.1C1309.2,164.8 1316.7,198.2 1332.5,227C1331.1,228.9 1329.8,228.4 1328.8,228.4C1308.5,228.4 1288.1,228.3 1267.8,228.5C1264.2,228.5 1263,227.1 1261.8,224.1C1255.4,207.5 1248.8,191 1242.2,174.5C1241.3,172.3 1240.5,170.2 1239.5,168.1C1235.3,159.6 1232.9,158.3 1222.3,159.3ZM1222.7,72.8L1222.7,111.4C1230.3,111.4 1237.6,112 1244.9,110.9C1255.4,109.3 1261.1,102.1 1261,90.9C1260.9,80.6 1256,74.5 1245.8,73.2C1238.3,72.2 1230.6,72.5 1222.7,72.8Z" style="fill:rgb(255,255,255);fill-rule:nonzero;"/>
    </g>
	<g transform="matrix(1,0,0,1,-25.5,-24.5811)">
        <path d="M746.1,25L802.7,25C803,25.5 803.2,25.8 803.2,26C803.2,72.1 803.1,118.3 803,164.4C803,171.9 801.5,179.3 799.5,186.5C793,209.9 777.6,224.5 754.5,230.8C732,237 709,237.4 686.2,232.4C657.7,226.2 641.2,207.4 637,177.9C635.9,170.1 635.3,162.3 635.3,154.5L635.3,29.5C635.3,28 635.4,26.6 635.5,24.9L692.6,24.9C693.7,26.5 693.1,28.4 693.1,30.2L693.1,153.2C693.1,160.1 693.6,166.9 696.1,173.3C699.9,183.3 707.8,188.6 718.9,188.7C729.9,188.8 738,183.7 742.2,173.9C745.2,167 745.5,159.7 745.5,152.4L745.5,30.4C745.6,28.7 745.2,26.9 746.1,25Z" style="fill:rgb(255,255,255);fill-rule:nonzero;"/>
    </g>
	<g transform="matrix(1,0,0,1,-25.5,-24.5811)">
        <path d="M1001.2,24.8L1134.7,24.8L1134.7,73.5L1061.6,73.5L1061.6,99.4L1128,99.4L1128,147.8L1061.4,147.8L1061.4,179.3L1134.6,179.3L1134.6,228.2L1001.1,228.2C1001.2,160.5 1001.2,92.8 1001.2,24.8Z" style="fill:rgb(255,255,255);fill-rule:nonzero;"/>
    </g>
	<g transform="matrix(1,0,0,1,-25.5,-24.5811)">
        <path d="M85.9,163.6L85.9,228.2L25.5,228.2L25.5,24.9C26.6,24.8 27.6,24.6 28.5,24.6C56.3,24.7 84.1,24.6 111.9,24.9C122.4,25 132.8,26.7 142.8,30C164.6,37.1 178.1,51.6 182.1,74.6C184.5,88.3 184.1,101.9 180.5,115.2C173.6,140.5 155.6,153.9 131.1,160C116.5,163.6 101.5,163.6 85.9,163.6ZM86.1,115.6C91.1,115.9 95.9,115.9 100.7,115.3C117.7,113.3 124.7,104.3 122,87.4C120.9,80.5 117.2,75.8 110.4,74C102.4,71.9 94.3,73 86.1,72.7L86.1,115.6Z" style="fill:rgb(255,255,255);fill-rule:nonzero;"/>
    </g>
	<g transform="matrix(1,0,0,1,-25.5,-24.5811)">
        <path d="M815.6,228.4C841.1,176.8 866.3,125.9 891.9,74L827.4,74L827.4,25L982.6,25C957.2,76.4 932,127.5 906.4,179.4L977.8,179.4L977.8,228.4L815.6,228.4Z" style="fill:rgb(255,255,255);fill-rule:nonzero;"/>
    </g>
	<g transform="matrix(1,0,0,1,-25.5,-24.5811)">
        <path d="M1406.3,119.8L1406.3,228.3L1351.8,228.3L1351.8,24.8L1378.8,24.8C1389.1,24.8 1399.5,25 1409.8,24.7C1413.5,24.6 1415.3,25.7 1417.1,29C1434.6,62.6 1451.8,96.4 1470,129.6C1487.3,161.1 1505.6,192 1523.5,223.1C1524.4,224.7 1525.2,226.2 1526.1,227.8C1524.9,229.3 1523.5,228.7 1522.3,228.7C1504.1,228.7 1486,228.6 1467.8,228.8C1464.4,228.8 1462.8,227.6 1461.4,224.8C1444.1,191.5 1426.6,158.2 1409.1,125C1408.3,123.5 1407.5,122.1 1406.3,119.8Z" style="fill:rgb(255,255,255);fill-rule:nonzero;"/>
    </g>
	<g transform="matrix(1,0,0,1,-25.5,-24.5811)">
        <path d="M207.7,713.2C207.6,690.2 208.5,670.4 214.9,651.4C224.3,623.2 244.7,609.3 273.5,606.1C286.8,604.6 300.1,605.1 313.2,607.8C338.4,613 353.8,628.6 360.9,652.9C364.2,664 365.7,675.3 366.3,686.8C367.6,711 367.9,735.1 362,758.8C353.7,792.6 331.9,810.8 297.2,812.9C284.7,813.7 272.2,813.5 259.9,810.7C232.5,804.5 217.9,786 211.9,759.7C208.3,743.4 207.6,726.8 207.7,713.2ZM333.2,707.3C333.1,696.1 333.9,683.1 331,670.3C327.7,655.8 321.8,643.1 307.1,636.8C280.3,625.2 252.4,637.7 245.2,665.9C238.2,693.2 239,721.2 244,748.6C249.1,776.4 267.5,788.4 295.5,784.9C312.4,782.8 324.7,770.9 330,751.8C333.8,737.8 333.1,723.4 333.2,707.3Z" style="fill:rgb(255,255,255);fill-rule:nonzero;"/>
    </g>
	<g transform="matrix(1,0,0,1,-25.5,-24.5811)">
        <path d="M918.8,419.2C918.6,399.6 919.7,381 925,363C933.4,334.6 954,317.8 983.5,314.9C997,313.6 1010.4,313.5 1023.8,316.3C1050.7,321.8 1066.4,338.8 1073,364.9C1079.1,389.3 1078.8,414.1 1077.5,438.9C1076.9,451 1075,463 1071.3,474.7C1062.5,502.6 1042.9,517.2 1014.5,521C1000.5,522.9 986.6,522.6 972.8,519.8C944.4,514 929.2,495.4 923.2,468.1C919.4,451.6 918.6,435 918.8,419.2ZM1044.2,416.7C1044,406.9 1044.7,395.9 1043,385C1041,372.1 1037.4,359.8 1027,351C1003.1,330.9 965.5,342.8 956.3,373.5C949.7,395.6 952.3,418.4 952.6,441C952.7,447 953.6,452.9 955.1,458.8C958.9,473.9 966,486.8 981.9,491.6C1003.8,498.2 1032.4,494.1 1041.2,460C1044.7,446.1 1044.1,432 1044.2,416.7Z" style="fill:rgb(255,255,255);fill-rule:nonzero;"/>
    </g>
	<g transform="matrix(1,0,0,1,-25.5,-24.5811)">
        <path d="M370,318.8C370.4,318.5 370.5,318.4 370.6,318.4C400.7,318.7 430.9,315.8 460.8,320.8C489.9,325.6 507.7,342.6 513.3,371.6C519.1,401.8 519.5,432.3 512.6,462.4C505.6,493 485.2,509.6 454.9,515.2C435.6,518.8 416.1,517.9 396.6,518L369.9,518C370,451.1 370,384.9 370,318.8ZM402.3,345.2L402.3,490.1C403.2,490.3 404,490.7 404.8,490.7C417.1,490.8 429.4,490.9 441.7,489C463.9,485.6 477.6,474.2 481.2,453.2C485.4,429 485.6,404.4 480.7,380.2C477.2,363 466.3,351.6 448.8,347.5C433.6,343.9 418.1,345.6 402.3,345.2Z" style="fill:rgb(255,255,255);fill-rule:nonzero;"/>
    </g>
	<g transform="matrix(1,0,0,1,-25.5,-24.5811)">
        <path d="M545.9,180.6L614.9,180.6L614.9,228.3L485.9,228.3L485.9,25L545.9,25L545.9,180.6Z" style="fill:rgb(255,255,255);fill-rule:nonzero;"/>
    </g>
	<g transform="matrix(1,0,0,1,-25.5,-24.5811)">
        <path d="M1786.7,318.2L1819.5,318.2L1819.5,517.4L1787.2,517.4L1787.2,429L1706.3,429L1706.3,517.4L1673.6,517.4L1673.6,318.3L1705.8,318.3L1705.8,399.4L1786.7,399.4L1786.7,318.2Z" style="fill:rgb(255,255,255);fill-rule:nonzero;"/>
    </g>
	<g transform="matrix(1,0,0,1,-25.5,-24.5811)">
        <path d="M663.9,609.6L696.8,609.6L696.8,808.8L664.2,808.8L664.2,720.3L583.3,720.3L583.3,808.8L551.1,808.8L551.1,609.6L583.1,609.6L583.1,690.7L663.9,690.7L663.9,609.6Z" style="fill:rgb(255,255,255);fill-rule:nonzero;"/>
    </g>
	<g transform="matrix(1,0,0,1,-25.5,-24.5811)">
        <path d="M1077.1,690.8L1158.1,690.8L1158.1,609.6L1190.7,609.6L1190.7,808.7L1158.3,808.7L1158.3,720.4L1077.4,720.4L1077.4,808.7L1045.1,808.7L1045.1,609.7L1077.1,609.7L1077.1,690.8Z" style="fill:rgb(255,255,255);fill-rule:nonzero;"/>
    </g>
	<g transform="matrix(1,0,0,1,-25.5,-24.5811)">
        <path d="M171.8,808.9L139.4,808.9L139.4,720.4L58.5,720.4L58.5,808.8L26.3,808.8L26.3,609.8L58.3,609.8L58.3,690.9L139.1,690.9L139.1,609.7L171.7,609.7C171.8,676 171.8,742.2 171.8,808.9Z" style="fill:rgb(255,255,255);fill-rule:nonzero;"/>
    </g>
	<g transform="matrix(1,0,0,1,-25.5,-24.5811)">
        <path d="M880,354.2C870.9,350.4 862.4,346.6 853.3,344.6C837.1,341 820.9,340 805.2,346.3C790.9,352 783.1,363.5 779.1,377.8C777.1,385 775.9,392.5 776,400C776.2,416.6 774.9,433.3 777,449.9C778.7,463 782.3,475.4 792.7,484.6C803.3,494 816.1,495 829.4,493.8C837,493.1 844.5,491.3 851.6,488.2C853.6,487.3 854.9,486.3 854.8,483.8C854.7,468.6 854.7,453.5 854.7,438.3C854.7,437.8 854.4,437.4 854.1,436.4L822.6,436.4L822.6,409.5L885.4,409.5C886.5,411.1 886.1,412.6 886.1,414.1L886.1,500.1C886.1,502.5 886.2,504.6 883.6,505.9C853.3,521.5 821.6,526.9 788.4,517.5C768.8,511.9 756.9,497.8 750.2,479C746.5,468.6 744.6,457.8 743.7,446.8C741.6,420.8 741.2,394.9 748.1,369.4C756.9,336.6 778.8,318.3 812.8,314.8C835.2,312.5 857,314.6 877.8,323.9C880.4,325.1 881.7,326.2 881.5,329.3C880.6,337.4 880.4,345.5 880,354.2Z" style="fill:rgb(255,255,255);fill-rule:nonzero;"/>
    </g>
	<g transform="matrix(1,0,0,1,-25.5,-24.5811)">
        <path d="M1243.4,354.2C1232.7,349.5 1222.5,345.3 1211.7,343.4C1196.9,340.9 1182.1,340.5 1168,346.5C1152.1,353.3 1143.9,366.5 1141.4,382.7C1137.6,408 1137.1,433.5 1142.2,458.7C1147.5,484.9 1166.8,497.5 1193.4,493.6C1200.8,492.5 1208.1,491 1215,487.9C1216.5,487.2 1218,486.7 1218,484.5C1217.9,468.5 1218,452.6 1218,436.1L1186.1,436.1L1186.1,409.8C1190,409 1242.6,408.8 1248.6,409.5C1249.9,410.9 1249.3,412.6 1249.3,414.2L1249.3,499.7C1249.3,502.2 1249.5,504.5 1246.6,506C1217.2,521.1 1186.5,526.4 1154.2,518.1C1129,511.6 1115.8,493.1 1110.7,468.9C1103.5,435 1102.9,400.8 1112,367C1120.4,336.1 1143.5,317.8 1175.4,314.7C1198.2,312.5 1220.2,314.4 1241.3,323.9C1244,325.1 1245.1,326.4 1244.8,329.4C1244.3,337.5 1243.9,345.4 1243.4,354.2Z" style="fill:rgb(255,255,255);fill-rule:nonzero;"/>
    </g>
	<g transform="matrix(1,0,0,1,-25.5,-24.5811)">
        <path d="M1237.3,609.5L1269.1,609.5C1270.5,611.3 1269.9,613.4 1269.9,615.3C1269.9,656.8 1270,698.3 1269.9,739.8C1269.9,747.2 1270.5,754.4 1272.8,761.5C1277.2,774.9 1286.4,782.6 1300,784.8C1307.4,786 1315,785.9 1322.3,783.9C1337.3,779.8 1344.4,768.9 1346.9,754.3C1347.8,749.2 1348,744 1348,738.9L1348,609.4L1378.2,609.4C1379.8,609.4 1380.7,610.1 1380.7,611.8L1380.7,739.3C1380.7,749.1 1380,758.9 1377.6,768.5C1371.2,793.6 1354,808.6 1327.6,812C1313.5,813.8 1299.4,814.1 1285.3,811.4C1258.6,806.2 1243.6,790.7 1239,763.9C1237.7,756.3 1237.1,748.7 1237.1,741L1237.1,613.5C1237.1,612.4 1237.2,611.2 1237.3,609.5Z" style="fill:rgb(255,255,255);fill-rule:nonzero;"/>
    </g>
	<g transform="matrix(1,0,0,1,-25.5,-24.5811)">
        <path d="M713.6,517.8C703.1,517.8 692.6,517.7 682.1,517.8C679.2,517.8 679,515.8 678.4,514C674.2,500.5 670,487 666,473.5C665.1,470.3 663.8,469 660.2,469.1C638.4,469.3 616.6,469.3 594.7,469.1C590.9,469.1 589.6,470.4 588.6,473.8C584.6,487.2 580.1,500.4 576.1,513.8C575.2,516.9 573.9,518.1 570.6,518C561.3,517.8 552,517.9 542.6,517.9C541.9,515.9 542.9,514.5 543.4,513C564.6,449.6 585.8,386.2 606.9,322.8C608.1,319.2 609.7,317.9 613.6,318C623.8,318.3 633.9,318.2 644.1,318C647.3,317.9 648.8,318.9 649.8,321.9C670.8,385.7 692,449.5 713.1,513.2C713.6,514.5 714.3,515.7 713.6,517.8ZM656.9,441.9C647.2,410.7 637.5,379.8 627.5,347.7C617.4,379.9 607.6,410.7 597.8,441.9L656.9,441.9Z" style="fill:rgb(255,255,255);fill-rule:nonzero;"/>
    </g>
	<g transform="matrix(1,0,0,1,-25.5,-24.5811)">
        <path d="M333.3,517.8C322.8,517.8 312.2,517.7 301.5,517.8C298.6,517.8 298.5,515.7 297.9,513.9C293.7,500.2 289.3,486.6 285.3,472.9C284.4,469.9 283.2,469 280.1,469C257.9,469.1 235.8,469.1 213.6,469C210.2,469 209,470.4 208.1,473.3C204,486.8 199.6,500.3 195.5,513.8C194.6,516.9 193.1,518 189.9,517.9C180.6,517.7 171.4,517.8 161.3,517.8C163.6,510.8 165.7,504.5 167.8,498.3C187.4,439.8 207,381.3 226.4,322.8C227.6,319.2 229.1,317.9 233,318C243.3,318.3 253.7,318.2 264,318C266.8,318 268.1,318.7 269,321.5C290.2,385.8 311.6,450 332.8,514.2C333.3,515.2 334.1,516.3 333.3,517.8ZM276.4,441.8C266.6,410.6 257.1,380.1 247.5,349.7C247.1,349.7 246.6,349.8 246.2,349.8C236.6,380.3 227,410.9 217.2,441.8L276.4,441.8Z" style="fill:rgb(255,255,255);fill-rule:nonzero;"/>
    </g>
	<g transform="matrix(1,0,0,1,-25.5,-24.5811)">
        <path d="M58.4,517.6L26.2,517.6L26.2,318.9C27.2,317.9 28.2,318.2 29.2,318.2C50,318.2 70.8,318.1 91.7,318.3C100.5,318.4 109.3,319.6 117.8,322C141.7,328.8 155.4,345.6 156.9,370.4C157.6,381.3 157.2,392.1 153.9,402.5C146.6,425.6 129.3,436.6 106.7,441.1C95,443.4 83.2,443.3 71.4,443.2L58.4,443.2L58.4,517.6ZM58.6,416C70.8,415.7 82.5,416.7 94.1,415C109.9,412.7 119.7,404.7 122.7,391.2C124.3,383.8 124.3,376.3 122.7,368.9C120.3,357.8 113.7,350.4 102.8,347.3C88.3,343.2 73.5,345.7 58.6,344.9L58.6,416Z" style="fill:rgb(255,255,255);fill-rule:nonzero;"/>
    </g>
	<g transform="matrix(1,0,0,1,-25.5,-24.5811)">
        <path d="M1866.1,517.5L1866.1,318.4L1976.4,318.4L1976.4,345.3L1899,345.3L1899,400.5L1969.6,400.5L1969.6,427.7L1899,427.7L1899,490.2L1976.5,490.2L1976.5,517.5L1866.1,517.5Z" style="fill:rgb(255,255,255);fill-rule:nonzero;"/>
    </g>
	<g transform="matrix(1,0,0,1,-25.5,-24.5811)">
        <path d="M1678.8,609.3L1678.8,636.9L1601.2,636.9L1601.2,691.8L1672.3,691.8L1672.3,719L1601.3,719L1601.3,781.7L1678.7,781.7L1678.7,808.4C1675,809.2 1577.7,809.6 1569,808.8C1567.7,807.2 1568.3,805.3 1568.3,803.5C1568.3,740.7 1568.3,677.9 1568.2,615.1C1568.2,610.7 1569.1,609.1 1573.9,609.2C1607.2,609.4 1640.5,609.3 1673.8,609.3L1678.8,609.3Z" style="fill:rgb(255,255,255);fill-rule:nonzero;"/>
    </g>
	<g transform="matrix(1,0,0,1,-25.5,-24.5811)">
        <path d="M736.6,771.2C749.8,778.4 762.6,783 776.3,784.5C786.6,785.6 796.9,785.6 806.9,782C817.1,778.2 824.2,771.5 826,760.3C827.8,748.5 822.9,739.6 813.4,732.9C803.2,725.7 791.2,722.5 779.7,718C766.5,712.9 754.2,706.3 745.7,694.5C723,662.9 738.1,619.4 775.5,609C800.2,602.2 824.3,604.7 847.9,613.9C849.4,614.5 851.2,614.8 851,617.1C850.4,626 849.8,635 849.2,644.5C840.6,641 832.7,637.5 824.2,635.6C812.5,632.9 800.9,631.9 789.1,635.1C778.2,638.1 770.9,644.5 769.4,656.3C768,667.6 772.8,676 782.1,682C791.8,688.3 803,691.4 813.7,695.6C824.6,700 834.8,705.2 843.8,713C867.5,733.8 869.6,791.2 822.7,807.7C793.9,817.8 765.3,814.3 737.5,802.6C736.3,802.1 734.9,801.7 735,799.9C735.5,790.7 736,781.4 736.6,771.2Z" style="fill:rgb(255,255,255);fill-rule:nonzero;"/>
    </g>
	<g transform="matrix(1,0,0,1,-25.5,-24.5811)">
        <path d="M1477.8,353.3C1468.3,349 1459.3,345.3 1449.6,343.4C1438.5,341.2 1427.4,340.8 1416.5,344C1407.5,346.6 1400.9,352 1398.7,361.7C1396.5,371.6 1398.6,380.2 1406.3,387.1C1412,392.3 1418.9,395.1 1425.8,397.9C1436.6,402.2 1447.6,405.9 1458,411.3C1499,432.4 1495.2,486.6 1468.5,506.9C1455.9,516.4 1441.6,520.6 1426.2,521.7C1406.1,523.1 1386.8,519.9 1368.1,512.2C1364.6,510.8 1363.4,509 1363.7,505.2C1364.4,497.1 1364.7,488.9 1365.1,480.8C1367.1,480.1 1368.3,481.6 1369.7,482.3C1389.3,492 1409.7,497.1 1431.5,492C1449.1,487.9 1458.6,472.5 1453.9,456.9C1451.4,448.6 1445.1,443.4 1438,439.1C1427.5,432.8 1415.5,430 1404.4,425.2C1396.7,421.9 1389.3,418.1 1383,412.6C1364.7,396.6 1361.1,376 1366.5,353.9C1371.9,331.6 1388.9,320.8 1410.1,316.4C1432.5,311.7 1454.5,314.3 1475.8,322.4C1478.7,323.5 1479.8,324.9 1479.5,328.3C1478.7,336.2 1478.4,344.5 1477.8,353.3Z" style="fill:rgb(255,255,255);fill-rule:nonzero;"/>
    </g>
	<g transform="matrix(1,0,0,1,-25.5,-24.5811)">
        <path d="M1641.4,481C1641.9,490 1642.4,498.6 1642.8,507.2C1642.9,509.7 1640.7,510 1639.2,510.8C1620.5,520.5 1600.5,523.4 1579.6,521.4C1562.5,519.8 1547.1,514.3 1535.3,501.2C1524.4,489.1 1519.5,474.3 1517.2,458.6C1513.2,431.3 1512.8,403.8 1518,376.6C1521.5,358.2 1528.6,341.6 1543.8,329.4C1556.5,319.2 1571.6,315.4 1587.4,314.2C1604.1,313 1620.2,315.4 1635.9,321.5C1639.5,322.9 1641.1,324.3 1640.5,328.7C1639.5,336.1 1639.4,343.6 1639,351.6C1633.1,349.5 1627.7,347.4 1622.1,345.5C1611.8,342.1 1601.2,340.8 1590.6,342.4C1567.9,345.8 1554.5,359.1 1550.2,382.4C1546.5,402.5 1548.1,422.9 1548.7,443.2C1548.9,450 1550.3,456.7 1552.6,463.2C1559.3,482.4 1573.9,493 1594.3,494.1C1609.3,494.9 1622.8,490.3 1635.8,483.5C1637.1,482.8 1638.4,482.1 1639.8,481.4C1639.9,481.2 1640.2,481.2 1641.4,481Z" style="fill:rgb(255,255,255);fill-rule:nonzero;"/>
    </g>
	<g transform="matrix(1,0,0,1,-25.5,-24.5811)">
        <path d="M516.1,643.2C503.4,637.5 491.1,633.4 477.9,633.1C450.8,632.5 433.3,645.5 427.9,672.1C422.9,696.7 423.1,721.9 427.7,746.6C433.8,779.3 458.4,788.4 486.6,784.5C495.9,783.2 504.4,779.2 512.7,774.9C514.4,774 516.2,773.1 518.6,771.9C519.1,781.2 519.5,789.9 520,798.6C520.1,801.1 518,801.4 516.4,802.2C492.8,814.3 468.1,816.2 442.6,810.2C422.5,805.5 409,792.7 401.1,773.9C397.9,766.3 395.8,758.5 394.6,750.4C390.5,721.9 390,693.3 396,665C400.7,643.1 410.8,624.7 431.7,614.1C447.1,606.3 463.8,604.6 480.8,605.6C492.2,606.3 503.1,609 513.7,613.2C516.8,614.4 518.2,615.7 517.9,619.3C517.1,626.9 516.7,634.7 516.1,643.2Z" style="fill:rgb(255,255,255);fill-rule:nonzero;"/>
    </g>
	<g transform="matrix(1,0,0,1,-25.5,-24.5811)">
        <path d="M1012.6,772C1013.1,780.9 1013.4,789.4 1014,797.8C1014.2,800.5 1012.4,801.1 1010.6,802.1C999.9,807.8 988.5,811.4 976.5,812.6C962.4,814 948.2,813.8 934.4,809.7C911.7,803 898.5,787.2 892,765.1C884.6,739.9 885,714.1 886.5,688.3C887.2,676.6 889.3,665.2 893,654.1C902.5,625.5 922.6,610 952.2,606.2C971.2,603.8 989.7,605.9 1007.6,613C1010.8,614.3 1012.4,615.7 1012,619.4C1011.2,627.1 1010.8,634.9 1010.2,643.1C999.6,638.7 989.6,635.1 978.7,633.7C948.7,629.9 927.7,643.4 921.8,672.9C916.9,697.3 917.1,722.4 921.8,746.9C927.9,779.2 952.6,788.6 980.9,784.5C991.1,783 1000.2,778.5 1009.2,773.7C1010.1,773.1 1011.2,772.7 1012.6,772Z" style="fill:rgb(255,255,255);fill-rule:nonzero;"/>
    </g>
	<g transform="matrix(1,0,0,1,-25.5,-24.5811)">
        <path d="M1535.7,808.8L1427.1,808.8L1427.1,609.6L1458.5,609.6C1459.7,611.7 1459.2,613.8 1459.2,615.7C1459.2,669 1459.3,722.3 1459.1,775.6C1459.1,780.9 1460.7,781.9 1465.6,781.8C1487.4,781.6 1509.2,781.8 1531.1,781.9L1535.8,781.9C1535.7,791.1 1535.7,799.8 1535.7,808.8Z" style="fill:rgb(255,255,255);fill-rule:nonzero;"/>
    </g>
	<g transform="matrix(1,0,0,1,-25.5,-24.5811)">
        <rect x="1293.3" y="318.4" width="32.2" height="199.2" style="fill:rgb(255,255,255);fill-rule:nonzero;"/>
    </g>
	<g transform="matrix(1,0,0,1,-25.5,-24.5811)">
        <path d="M1456.1,24.9L1527.6,24.9L1527.6,157.8C1503.5,112.9 1480,69.3 1456.1,24.9Z" style="fill:rgb(255,255,255);fill-rule:nonzero;"/>
    </g>
	<g transform="matrix(1,0,0,1,-25.5,-24.5811)">
        <path d="M193,280.4C193,269.8 201.8,261.1 212.5,261.1C223.1,261.2 232,270.2 231.9,280.6C231.8,291.2 222.9,299.9 212.3,299.9C201.6,299.9 193,291.1 193,280.4Z" style="fill:rgb(255,255,255);fill-rule:nonzero;"/>
    </g>
	<g transform="matrix(1,0,0,1,-25.5,-24.5811)">
        <path d="M300,280.2C300.1,290.9 291.5,299.7 280.9,299.9C270.3,300.1 261.4,291.4 261.1,280.8C260.9,270.3 269.6,261.3 280.3,261.1C290.9,261 299.9,269.7 300,280.2Z" style="fill:rgb(255,255,255);fill-rule:nonzero;"/>
    </g>
</svg>
